<?xml version="1.0" encoding="UTF-8" standalone="no"?>
<svg
   fill="none"
   viewBox="0 0 34 34"
   stroke-width="1.5"
   stroke="currentColor"
   version="1.1"
   id="svg4"
   sodipodi:docname="icon_dark.svg"
   inkscape:version="1.1.2 (0a00cf5339, 2022-02-04)"
   inkscape:export-filename="/home/robin/Downloads/icon512.png"
   inkscape:export-xdpi="1445.65"
   inkscape:export-ydpi="1445.65"
   width="34"
   height="34"
   xmlns:inkscape="http://www.inkscape.org/namespaces/inkscape"
   xmlns:sodipodi="http://sodipodi.sourceforge.net/DTD/sodipodi-0.dtd"
   xmlns:xlink="http://www.w3.org/1999/xlink"
   xmlns="http://www.w3.org/2000/svg"
   xmlns:svg="http://www.w3.org/2000/svg">
  <defs
     id="defs8">
    <linearGradient
       inkscape:collect="always"
       id="linearGradient3412">
      <stop
         style="stop-color:#e879f9;stop-opacity:1"
         offset="0"
         id="stop3408" />
      <stop
         style="stop-color:#3b82f6;stop-opacity:1"
         offset="1"
         id="stop3410" />
    </linearGradient>
    <linearGradient
       inkscape:collect="always"
       xlink:href="#linearGradient3412"
       id="linearGradient3414"
       x1="2.280134"
       y1="9.8798199"
       x2="21.737967"
       y2="15.521115"
       gradientUnits="userSpaceOnUse"
       gradientTransform="translate(5,5)" />
  </defs>
  <sodipodi:namedview
     id="namedview6"
     pagecolor="#374151"
     bordercolor="#666666"
     borderopacity="1.0"
     inkscape:pageshadow="2"
     inkscape:pageopacity="1"
     inkscape:pagecheckerboard="0"
     showgrid="false"
     inkscape:zoom="26.833333"
     inkscape:cx="15.819876"
     inkscape:cy="14.962733"
     inkscape:window-width="3840"
     inkscape:window-height="2065"
     inkscape:window-x="0"
     inkscape:window-y="58"
     inkscape:window-maximized="1"
     inkscape:current-layer="svg4"
     width="25px"
     scale-x="1" />
  <path
     stroke-linecap="round"
     stroke-linejoin="round"
     d="m 17,12.5 h 1.5 m -1.5,3 h 1.5 m -7.5,3 h 7.5 m -7.5,3 h 7.5 m 3,-9 h 3.375 C 25.496,12.5 26,13.004 26,13.625 V 23 a 2.25,2.25 0 0 1 -2.25,2.25 M 21.5,12.5 V 23 a 2.25,2.25 0 0 0 2.25,2.25 M 21.5,12.5 V 9.875 C 21.5,9.254 20.996,8.75 20.375,8.75 H 9.125 C 8.504,8.75 8,9.254 8,9.875 V 23 a 2.25,2.25 0 0 0 2.25,2.25 h 13.5 M 11,12.5 h 3 v 3 h -3 z"
     id="path2"
     style="fill:none;stroke:url(#linearGradient3414)" />
</svg>
